<svg width="217" height="217" viewBox="0 0 217 217" fill="none" xmlns="http://www.w3.org/2000/svg">
<path d="M209.178 42.6777C218.941 32.9146 218.941 17.0854 209.178 7.32233C199.415 -2.44078 183.585 -2.44078 173.822 7.32233L132.042 49.103C118.764 62.3809 97.2362 62.3808 83.9584 49.103L42.6777 7.82233C32.9146 -1.94078 17.0854 -1.94078 7.32234 7.82233C-2.44077 17.5854 -2.44077 33.4146 7.32234 43.1777L48.603 84.4584C61.8809 97.7362 61.8808 119.264 48.603 132.542L7.32233 173.822C-2.44078 183.585 -2.44078 199.415 7.32233 209.178C17.0854 218.941 32.9146 218.941 42.6777 209.178L83.9584 167.897C97.2362 154.619 118.764 154.619 132.042 167.897L173.822 209.678C183.585 219.441 199.415 219.441 209.178 209.678C218.941 199.915 218.941 184.085 209.178 174.322L167.397 132.542C154.119 119.264 154.119 97.7362 167.397 84.4584L209.178 42.6777Z" fill="#2A3133"/>
</svg>
