<svg width="561" height="561" viewBox="0 0 561 561" fill="none" xmlns="http://www.w3.org/2000/svg">
<path d="M280.5 561C435.416 561 561 435.416 561 280.5C561 125.584 435.416 0 280.5 0C125.584 0 0 125.584 0 280.5C0 328.446 12.0295 373.583 33.2351 413.056C40.9186 427.358 60.0751 429.082 71.5556 417.601L136.123 353.034C146.277 342.88 162.739 342.88 172.893 353.034L208.718 388.859C218.872 399.013 218.872 415.475 208.718 425.629L144.376 489.97C132.867 501.48 134.634 520.691 149.005 528.332C188.226 549.185 232.983 561 280.5 561Z" fill="#2A3133"/>
</svg>
