<svg width="189" height="189" viewBox="0 0 189 189" fill="none" xmlns="http://www.w3.org/2000/svg">
<path d="M23 5H133.766C138.539 5 143.118 6.89643 146.494 10.2721L178.728 42.5065C182.104 45.8821 184 50.4605 184 55.2344V166C184 175.941 175.941 184 166 184H23C13.0589 184 5 175.941 5 166V23C5 13.0589 13.0589 5 23 5Z" stroke="#2A3133" stroke-width="10"/>
<path fill-rule="evenodd" clip-rule="evenodd" d="M39 116C39 103.297 49.2975 93 62 93H128C140.703 93 151 103.297 151 116V184C151 186.761 153.239 189 156 189V189C158.761 189 161 186.761 161 184V93V93C161 87.4772 156.523 83 151 83V83H39V83C33.4772 83 29 87.4772 29 93V93V184C29 186.761 31.2386 189 34 189V189C36.7614 189 39 186.761 39 184V116Z" fill="#2A3133"/>
<path fill-rule="evenodd" clip-rule="evenodd" d="M102.81 24.5C102.81 35.2696 94.0791 44 83.3096 44L58.5001 44C47.7305 44 39.0001 35.2696 39.0001 24.5L39.0001 10C39.0001 7.23859 36.7615 5.00001 34.0001 5.00001V5.00001C31.2386 5.00001 29.0001 7.23859 29.0001 10L29.0001 44V44C29.0001 49.5229 33.4772 54 39.0001 54V54L102.81 54V54C108.332 54 112.81 49.5228 112.81 44V44L112.81 10C112.81 7.23858 110.571 5.00001 107.81 5.00001V5.00001C105.048 5.00001 102.81 7.23858 102.81 10L102.81 24.5Z" fill="#2A3133"/>
<rect x="84" y="14" width="11" height="24" rx="5.5" fill="#2A3133"/>
</svg>
