<svg width="204" height="276" viewBox="0 0 204 276" fill="none" xmlns="http://www.w3.org/2000/svg">
<path fill-rule="evenodd" clip-rule="evenodd" d="M141 16H62C61.4477 16 61 16.4477 61 17V31H142V17C142 16.4477 141.552 16 141 16ZM158 31V17C158 7.61116 150.389 0 141 0H62C52.6112 0 45 7.61116 45 17V31H8C3.58172 31 0 34.5817 0 39C0 43.4183 3.58172 47 8 47H196C200.418 47 204 43.4183 204 39C204 34.5817 200.418 31 196 31H158ZM13 65C13 60.5817 16.5817 57 21 57C25.4183 57 29 60.5817 29 65V236C29 249.255 39.7452 260 53 260H150C163.255 260 174 249.255 174 236V65C174 60.5817 177.582 57 182 57C186.418 57 190 60.5817 190 65V236C190 258.091 172.091 276 150 276H53C30.9086 276 13 258.091 13 236V65ZM63 74C67.4183 74 71 77.5817 71 82L71 230C71 234.418 67.4183 238 63 238C58.5817 238 55 234.418 55 230L55 82C55 77.5817 58.5817 74 63 74ZM110 82C110 77.5817 106.418 74 102 74C97.5817 74 94 77.5817 94 82L94 230C94 234.418 97.5817 238 102 238C106.418 238 110 234.418 110 230L110 82ZM141 74C145.418 74 149 77.5817 149 82V230C149 234.418 145.418 238 141 238C136.582 238 133 234.418 133 230V82C133 77.5817 136.582 74 141 74Z" fill="#B33F3F"/>
</svg>
