<svg width="299" height="300" viewBox="0 0 299 300" fill="none" xmlns="http://www.w3.org/2000/svg">
<path d="M86 50.9012C86 34.2502 68.6977 23.6023 55.735 34.0533C21.7447 61.4574 0 103.44 0 150.5C0 233.067 66.9334 300 149.5 300C232.067 300 299 233.067 299 150.5C299 103.977 277.749 62.4175 244.425 34.9984C231.477 24.3444 214 34.9975 214 51.7656V51.7656C214 58.9861 217.53 65.6662 222.85 70.5489C244.456 90.3819 258 118.859 258 150.5C258 210.423 209.423 259 149.5 259C89.5771 259 41 210.423 41 150.5C41 118.462 54.8866 89.6663 76.9692 69.8049C82.3915 64.9281 86 58.1941 86 50.9012V50.9012Z" fill="#2A3133"/>
<rect x="127" width="45" height="219" rx="22.5" fill="#2A3133"/>
</svg>
